<svg aria-hidden="true" style="width:0;height:0;position:absolute;overflow:hidden" xmlns="http://www.w3.org/2000/svg"><defs><symbol id="icon-blog-arrow" viewBox="0 0 19 32"><path stroke-linejoin="round" stroke-linecap="round" stroke-width="3.761" d="m2.095 2.865 13.491 13.484L2.095 29.831"/></symbol><symbol id="icon-logo" viewBox="0 0 195 32"><path d="M.087.306V.143h12.785c.074 0 .278.597.611 1.79l-.111.054c-.482-.94-1.575-1.41-3.28-1.41H2.81c-.296 0-.445.145-.445.434v8.188h7.17c.593 0 .926-.362 1.001-1.085h.056l.056.163V10.5c0 .108-.037.163-.111.163 0-.723-.445-1.085-1.334-1.085H2.366v12.689c0 .036.074.108.222.217h9.116c1.186 0 2.038-.488 2.557-1.464h.111c0 .036.018.054.056.054-.334 1.265-.537 1.898-.611 1.898H.143c-.074 0-.111-.054-.111-.163.556-.072.834-.289.834-.651V.955C.866.557.607.34.088.304zm24.347 6.345c1.742 0 3.131.741 4.169 2.223.185.325.278.578.278.759 1.705-1.988 3.632-2.983 5.781-2.983 2.223 0 3.761.904 4.614 2.711.111.325.167.633.167.922v11.876c0 .434.278.651.834.651v.108h-3.28v-.108c.519 0 .778-.181.778-.542V10.934c0-1.771-.76-2.874-2.279-3.308 0-.145-.556-.235-1.668-.271h-.167c-1.816 0-3.372 1.048-4.669 3.145v11.984c0 .145.278.253.834.325v.108h-3.335v-.108c.593 0 .889-.217.889-.651v-3.904c0-1.338-.037-2.458-.111-3.362.074-.47.111-1.482.111-3.037 0-2.061-.482-3.344-1.445-3.85a4.551 4.551 0 0 0-2.335-.651h-.389c-2.112 0-3.798 1.32-5.058 3.959-.259.759-.389 1.302-.389 1.627v9.165c0 .47.315.705.945.705v.054l-.167.054h-3.113c-.111 0-.167-.036-.167-.108.556-.145.834-.307.834-.488V7.409c0-.181-.278-.325-.834-.434v-.108l.167-.054h2.168c.111 0 .167.054.167.163v3.796h.111c1.445-2.748 3.632-4.121 6.559-4.121zm18.287-5.043h.278c.593 0 .945.398 1.056 1.193 0 .615-.445.976-1.334 1.085-.704-.217-1.056-.578-1.056-1.085v-.163c.185-.687.537-1.03 1.056-1.03zm-1.612 5.26.167-.054h2.279c.074 0 .111.054.111.163v15.184c.074.434.371.651.889.651v.054l-.167.054h-3.113c-.111 0-.167-.036-.167-.108.63 0 .945-.289.945-.868V7.79c0-.542-.315-.813-.945-.813v-.108zm4.28-6.67.167-.108h2.112c.111.036.167.09.167.163v21.962c0 .362.259.542.778.542v.108l-.111.054h-2.946c-.111 0-.167-.054-.167-.163.593 0 .889-.217.889-.651V.902c0-.362-.296-.578-.889-.651V.197zm4.225 6.67.167-.054h3.002c.111 0 .167.036.167.108-.408.108-.611.217-.611.325v.054c3.335 8.279 5.095 12.491 5.281 12.635 3.335-7.99 5.058-12.219 5.169-12.689v-.163c-.667-.036-1.001-.108-1.001-.217l.167-.054h2.001c.111 0 .167.036.167.108-.593 0-.982.398-1.167 1.193-4.521 11.207-7.059 17.389-7.615 18.546-1.334 2.603-3.242 3.904-5.725 3.904h-.167c-1.223 0-2.094-.199-2.612-.596v-.217c.037-.108.093-.163.167-.163h.056c1.001.253 1.779.38 2.335.38h.389c2.779 0 4.799-1.808 6.059-5.423.63-1.338.945-2.133.945-2.386-3.817-9.219-5.892-14.19-6.226-14.913-.63-.217-.945-.343-.945-.38zM73.182.198l.167-.054h2.835c.111 0 .167.036.167.108-.556.108-.834.235-.834.38v14.045c4.187-6.146 7.208-10.683 9.061-13.611l.056-.434c0-.145-.296-.271-.89-.38V.198l.167-.054h2.223c.075 0 .111.036.111.108-.629 0-1.556 1.048-2.779 3.145-1.668 2.458-2.984 4.465-3.947 6.019.333.578 3.317 4.953 8.949 13.123.37.181.555.289.555.325l-.167.108h-2.834c-.075 0-.111-.054-.111-.163.482-.108.722-.235.722-.38v-.108c0-.217-1.371-2.314-4.114-6.29-2.482-3.615-3.742-5.441-3.78-5.477h-.056c-.074.145-1.13 1.753-3.168 4.826v6.887c.037.362.315.542.834.542v.054l-.167.108h-2.835c-.111 0-.167-.054-.167-.163.482 0 .741-.181.778-.542V.629c0-.145-.259-.271-.778-.38V.195zm23.79 6.236c2.482 0 4.224.922 5.225 2.766.408.831.611 1.573.611 2.223l.056.705v10.141c.037.325.259.488.667.488.111 0 .167.018.167.054v.108h-2.446v-2.223c-1.482 1.482-3.261 2.223-5.336 2.223-1.853 0-3.447-.578-4.781-1.735-.852-.795-1.278-1.645-1.278-2.549 0-2.241 1.668-3.85 5.003-4.826 2.187-.651 3.632-1.121 4.336-1.41 1.074-.47 1.723-.958 1.945-1.464v-.108c0-.398-.203-1.012-.611-1.844-1-1.41-2.39-2.115-4.169-2.115h-.111c-1.593 0-2.983.506-4.168 1.518-.556.542-.946 1.247-1.167 2.115-.075.362-.111.578-.111.651h-.167c.037-.217.056-.362.056-.434V9.471c0-.795.278-1.32.834-1.573 1.075-.651 2.408-1.085 4.002-1.301.519-.108 1-.163 1.445-.163zm-5.559 12.527c0 1.302.723 2.314 2.168 3.037a6.76 6.76 0 0 0 2.668.542c2.075 0 3.743-.795 5.003-2.386v-7.05c0-.289.019-.56.056-.813l-.056-.813c-.741.578-1.426.994-2.056 1.247-.519.217-1.909.759-4.169 1.627-2.408 1.048-3.613 2.585-3.613 4.609zM105.81 2.584h1.389c.075 0 .111.036.111.108v4.121h3.169c.111 0 .167.054.167.163v.217c0 .108-.056.163-.167.163h-3.169V16.9c0 2.82 1.019 4.646 3.058 5.477.889.108 1.334.235 1.334.38 0 .072-.074.145-.222.217h-.167c-2.705 0-4.502-1.392-5.391-4.176-.186-.831-.278-2.205-.278-4.121V7.356h-1c-.111 0-.167-.054-.167-.163v-.217l.945-.542c.148-.181.222-.362.222-.542V2.693c0-.072.056-.108.167-.108zm6.726-2.386.111-.054h2.168c.075.036.111.09.111.163v10.9h.111c.519-1.482 1.612-2.711 3.28-3.687 1.074-.434 2.038-.651 2.89-.651 2.187 0 3.632 1.229 4.336 3.687.111.832.167 1.717.167 2.657v9.327c0 .145.241.235.722.271v.163h-3.058v-.163c.482-.036.723-.127.723-.271V11.694c0-1.952-.815-3.29-2.446-4.013-.445-.108-.76-.163-.945-.163h-.445c-2.112 0-3.762 1.41-4.947 4.23-.26.976-.389 1.88-.389 2.711v7.809c0 .362.278.542.834.542v.108l-.167.054h-2.946c-.074 0-.111-.054-.111-.163.593 0 .889-.307.889-.922V1.28c0-.615-.222-.922-.667-.922-.149 0-.222-.054-.222-.163zm23.012 6.399h.167c3.112 0 5.576 1.536 7.393 4.609.555 1.302.834 2.404.834 3.308l-.111.108H128.99v.054c0 4.194 1.63 6.851 4.891 7.972.741.145 1.297.217 1.668.217 2.557 0 4.947-1.229 7.17-3.687h.167c.074 0 .148.072.222.217v.054c-2.224 2.567-4.688 3.85-7.393 3.85h-.445c-3.076 0-5.429-1.464-7.059-4.392-.63-1.374-.946-2.675-.946-3.904 0-3.471 1.779-6.11 5.336-7.917 1.112-.325 2.094-.488 2.946-.488zm-6.559 7.483h13.229v-.108c0-2.061-.926-3.995-2.779-5.802-1.112-.868-2.335-1.301-3.669-1.301h-.5c-2.446 0-4.336 1.5-5.67 4.501-.259.723-.463 1.627-.611 2.711zm24.791-7.321c2.001 0 3.39.687 4.169 2.061v.163c0 .289-.296.47-.89.542h-.222c-.26-.253-.723-.669-1.39-1.247-.63-.578-1.483-.868-2.557-.868h-.111c-2.409 0-4.225 1.663-5.448 4.989v9.815c0 .398.296.597.889.597v.108l-.166.054h-3.113c-.111 0-.167-.054-.167-.163.63 0 .945-.325.945-.976V8.06c0-.687-.241-1.03-.722-1.03-.148 0-.222-.036-.222-.108l.167-.108h2.279c.075.036.111.09.111.163v3.85h.111c1.519-2.711 3.632-4.067 6.337-4.067zm6.615-5.151h.222c.594 0 .964.416 1.112 1.247 0 .578-.445.922-1.334 1.03-.741-.181-1.112-.524-1.112-1.03v-.163c.222-.723.593-1.085 1.112-1.085zm-1.668 5.26.167-.054h2.279c.111.036.167.09.167.163v15.238c.037.398.334.597.889.597v.108l-.167.054h-3.168c-.111 0-.167-.054-.167-.163.63 0 .945-.271.945-.814V7.789c0-.542-.315-.813-.945-.813v-.108zm13.34-.217c3.15.362 4.725 1.645 4.725 3.85v11.767c0 .362.26.542.779.542v.108h-3.28v-.108c.556 0 .834-.217.834-.651v-10.52c0-2.241-.704-3.579-2.112-4.013a5.712 5.712 0 0 0-1.779-.271h-.334c-1.816 0-3.372 1.121-4.669 3.362-.482.94-.722 1.717-.722 2.332v8.893c0 .578.315.868.945.868v.054l-.111.054h-3.169c-.11 0-.166-.036-.166-.108.555 0 .852-.217.889-.651V7.572c-.037-.434-.334-.651-.889-.651v-.054l.166-.108h2.224c.074.036.111.09.111.163v3.85c1.667-2.748 3.854-4.121 6.558-4.121zm14.619-.109h.167c3.113 0 5.577 1.536 7.393 4.609.556 1.301.834 2.422.834 3.362l-.111.054h-14.841v.108c0 4.194 1.63 6.833 4.891 7.917.741.145 1.297.217 1.667.217 2.557 0 4.948-1.229 7.171-3.688h.167c.074 0 .148.072.222.217v.108c-2.223 2.567-4.687 3.85-7.393 3.85h-.444c-3.076 0-5.429-1.464-7.06-4.392-.629-1.41-.945-2.729-.945-3.959 0-3.434 1.779-6.055 5.336-7.863 1.112-.362 2.094-.542 2.946-.542zm-6.559 7.484h13.229v-.054c0-2.061-.926-4.013-2.779-5.857-1.112-.832-2.334-1.247-3.669-1.247h-.5c-2.446 0-4.336 1.482-5.67 4.447-.259.759-.463 1.663-.611 2.711z"/></symbol><symbol id="icon-arrow" viewBox="0 0 20 32"><path d="M17.888 18.244 6.292 29.841a3.173 3.173 0 0 1-4.487-4.487l9.353-9.353-9.353-9.353a3.173 3.173 0 0 1 4.487-4.487l11.596 11.596a3.173 3.173 0 0 1 0 4.487z"/></symbol><symbol id="icon-down" viewBox="0 0 9 32"><path d="m4.444 32-.835.841.835.841.835-.841L4.444 32zm3.314-5.021L3.61 31.158l1.67 1.682 4.149-4.179-1.67-1.682zm-2.479 4.18L1.131 26.98l-1.67 1.682 4.148 4.179 1.67-1.682z"/><path d="M5.073 0v30.735H3.9V0h1.173z"/></symbol><symbol id="icon-left" viewBox="0 0 20 32"><path d="m16.278 31.918 3.59-3.656L7.764 16.074 19.868 3.97 16.278.297 4.09 12.485l-3.673 3.59 15.861 15.861v-.017z"/></symbol><symbol id="icon-right" viewBox="0 0 20 32"><path d="M3.896.082.306 3.738 12.41 15.926.306 28.03l3.59 3.673 12.188-12.188 3.673-3.59L3.896.064v.017z"/></symbol><symbol id="icon-email" viewBox="0 0 32 32"><path d="M1.254 7.401 14.184 17.7c.092.078.923.761 1.816.761.897 0 1.735-.658 1.825-.731L30.746 7.401a.498.498 0 0 0 .187-.389 2.492 2.492 0 0 0-2.489-2.489H3.555a2.492 2.492 0 0 0-2.489 2.489c0 .152.069.295.188.389zm2.302-1.882h24.889c.747 0 1.367.551 1.476 1.267L17.202 16.954c-.177.142-.739.512-1.202.512-.449 0-.998-.379-1.183-.535L2.079 6.786c.11-.716.73-1.267 1.476-1.267zm6.661 10.559-6.969 5.475a.499.499 0 0 0 .307.889.495.495 0 0 0 .308-.107l6.969-5.476a.499.499 0 0 0-.615-.783zm11.566 0a.498.498 0 0 0-.615.783l6.969 5.476a.498.498 0 1 0 .615-.783l-6.969-5.476z"/><path d="M30.436 9.003a.498.498 0 0 0-.498.498v13.44c0 .823-.67 1.493-1.493 1.493H3.556c-.823 0-1.493-.67-1.493-1.493V9.501a.498.498 0 0 0-.996 0v13.44a2.492 2.492 0 0 0 2.489 2.489h24.889a2.492 2.492 0 0 0 2.489-2.489V9.501a.498.498 0 0 0-.498-.498z"/></symbol><symbol id="icon-quotesvg" viewBox="0 0 36 32"><path stroke-width="1.24" d="M32.941 1.121c-5.02 0-11.712 1.675-11.712 13.385v13.385c0 2.091 1.265 3.375 3.349 3.349h6.69c2.091 0 3.349-1.255 3.349-3.299V17.853c0-2.091-1.255-3.349-3.349-3.349-1.675 0-1.675 0-1.675-1.675v-1.675c.058-.869.43-1.688 1.046-2.303s1.434-.987 2.304-1.046c1.675 0 1.675-.014 1.675-1.725V2.795c-.003-1.675-.003-1.675-1.676-1.675zm-20.078 0c-5.02 0-11.712 1.675-11.712 13.385v13.385c0 2.091 1.266 3.375 3.349 3.349h6.69c2.091 0 3.349-1.255 3.349-3.299V17.853c0-2.091-1.255-3.349-3.349-3.349H9.935c0-3.765-.418-6.693 4.601-6.693V2.795c0-1.675 0-1.675-1.673-1.675z"/></symbol><symbol id="icon-girl" viewBox="0 0 34 32"><path stroke-width="1.14" d="M13.448 4.739a11.546 11.546 0 0 1 5.863 12.227s1.616-1.32 1.732-5.59S17.39.105 9.846 1.221C2.302 2.337-.981 11.302 1.766 14.954a5.41 5.41 0 0 1 0 6.81s4.027-1.286 2.999-4.798-2.8-4.515.2-8.028c3-3.513 6.855-.6 9.169-5.998"/><path stroke-width="1.14" d="M5.552 8.516s-.007.097-.02.396c-.057 1.27-.046 7.111 2.57 9.303 2.043 2.337 7.505 1.323 8.953-2.086a12.4 12.4 0 0 0 .62-6.926s-1.964.723-2.791-2.481c-1.14 1.551-3.824 3.101-7.029 3.307m1.785 9.452s-1.332 3.425-4.281 3.045-5.708 4.947-4.281 8.752M14.42 19.481s1.332 3.425 4.281 3.045 5.708 4.947 4.282 8.752"/><path stroke-width="1.14" d="m8.308 21.669 3.71 2.188 2.188-1.427m17.633-5.366a2.312 2.312 0 0 0-3.17-.85l-.406.238-.232-.409a2.329 2.329 0 0 0-1.408-1.082 2.311 2.311 0 0 0-1.76.232 2.52 2.52 0 0 0-1.132 1.607 2.51 2.51 0 0 0 .371 1.93l2.425 4.202 4.205-2.427a2.525 2.525 0 0 0 1.285-1.485 2.526 2.526 0 0 0-.176-1.956zm-3.277-9.801a1.57 1.57 0 0 0-1.193.134 1.56 1.56 0 0 0-.747.941l-.086.303-.306-.091a1.57 1.57 0 0 0-1.193.134 1.56 1.56 0 0 0-.747.941 1.698 1.698 0 0 0 1.29 2.078l3.157.908.904-3.154a1.703 1.703 0 0 0-.486-1.864 1.695 1.695 0 0 0-.591-.332z"/></symbol><symbol id="icon-mask" viewBox="0 0 49 32"><path stroke-width="2.151" d="M1.076 13.455a11.826 11.826 0 0 0 11.826 11.826 18.922 18.922 0 0 1 11.826 4.733 18.919 18.919 0 0 1 11.826-4.733A11.826 11.826 0 0 0 48.38 13.455V1.629H36.552a18.922 18.922 0 0 0-11.826 4.733 18.922 18.922 0 0 0-11.825-4.733H1.075v11.826z"/><path stroke-width="2.151" d="M11.194 11.834c2.152 0 4.303.717 4.303 2.869-2.869 0-4.303 0-4.303-2.869zm27.067 0c-2.151 0-4.303.717-4.303 2.869 2.869 0 4.303 0 4.303-2.869z"/></symbol><symbol id="icon-intimate" viewBox="0 0 29 32"><path stroke-width="1.139" d="M15.378 19.357a7.594 7.594 0 1 0 0-15.188 7.594 7.594 0 0 0 0 15.188z"/><path stroke-width="1.139" d="M8.164 23.914a7.594 7.594 0 1 0 0-15.188 7.594 7.594 0 0 0 0 15.188zM21.605 7.45 28.383.672m-5.084 0h5.083V5.49M8.164 24.151v7.746m-3.526-3.872h6.987m14.93-6.131a2.318 2.318 0 0 0-2.528-.504 2.318 2.318 0 0 0-.752.504l-.33.335-.33-.335a2.318 2.318 0 0 0-2.528-.504 2.318 2.318 0 0 0-.752.504 2.502 2.502 0 0 0-.677 1.844 2.505 2.505 0 0 0 .857 1.767l3.431 3.431 3.431-3.431a2.5 2.5 0 0 0 .707-2.758 2.502 2.502 0 0 0-.526-.853zM6.086 2.051a1.443 1.443 0 0 0-1.017-.423 1.43 1.43 0 0 0-1.017.423l-.205.207-.205-.207a1.443 1.443 0 0 0-1.017-.423 1.43 1.43 0 0 0-1.017.423 1.56 1.56 0 0 0 .116 2.242L3.85 6.419l2.126-2.126a1.559 1.559 0 0 0 .111-2.241z"/></symbol><symbol id="icon-domination" viewBox="0 0 34 32"><path stroke-width="1.193" d="M7.463 31.129c-5.128-.954-9.837-9.602-4.35-17.947 6.976-7.989 10.974.537 10.974.537h5.545s4.829-8.827 11.329 0c2.206 3.101 2.564 8.765 1.312 11.746-2.147 5.01-6.141 5.664-6.141 5.664a6.971 6.971 0 0 0 1.485-5.07c-.06 0-3.22 1.788-3.22 1.788s1.312-2.922-1.848-2.981c-3.16-.06-2.922-2.624-3.995-3.757s-2.743-.835-3.757.895c-1.014 1.73-1.55 2.624-3.101 2.863s-3.399.656-2.386 2.743c-.596.298-3.041-1.55-3.041-1.55s-.177 3.279 1.194 5.069z"/><path stroke-width="1.193" d="M10.166 9.894a9.344 9.344 0 0 1-.432-8.253c-1.985 1.349-3.963 4.061-3.82 9.155m17.903-.902a9.344 9.344 0 0 0 .432-8.253c1.985 1.349 3.963 4.061 3.82 9.155m-15.088 7.319s-4.115-5.322-8.465 0c4.056 5.248 8.465 0 8.465 0zm16.69 0s-4.115-5.322-8.465 0c4.056 5.248 8.465 0 8.465 0z"/></symbol><symbol id="icon-sensual" viewBox="0 0 34 32"><path stroke-width="1.139" d="M32.703 15.485H.82v8.637h31.883v-8.637z"/><path stroke-width="1.139" d="M32.703 22.793H.82v8.637h31.883v-8.637z"/><path stroke-width="1.139" d="M8.24 16.126c-3.085 0-2.965 3.994-.191 3.994H26.03c2.967 0 2.854 3.458 0 3.384m-17.79-.081c-3.085 0-2.965 3.994-.191 3.994H26.03c2.967 0 2.854 3.458 0 3.384M17.438.811s-6.327 6.153 0 12.658c6.239-6.065 0-12.658 0-12.658z"/><path stroke-width="1.139" d="M19.83 4.281s1.938-2.185 3.939-2.708c1.569 2.646 1.985 9.201-6.409 12.085"/><path stroke-width="1.139" d="M15.112 4.281s-1.938-2.185-3.938-2.708c-1.569 2.646-1.985 9.201 6.409 12.085m6.398-5.275s2.84-.241 4.606.833a7.862 7.862 0 0 1-4.486 4.73 7.882 7.882 0 0 1-6.513-.272"/><path stroke-width="1.139" d="M10.967 8.381s-2.84-.241-4.606.833a7.862 7.862 0 0 0 4.485 4.73 7.88 7.88 0 0 0 6.513-.272"/></symbol><symbol id="icon-travel" viewBox="0 0 46 32"><path stroke-width="1.492" d="M23.82 16.916s2.005-.931 7.449-3.51c3.045-1.253 3.653-3.437 2.614-4.798-.844-1.109-2.759-1.282-4.476-.497-3.309 1.504-19.553 9.204-19.553 9.204l-6.887-1.482-1.432 2.645 5.537 2.586-1.79 1.046 1.432 2.838 10.881-5.179"/><path stroke-width="1.492" d="m17.942 17.388-1.308 12.71s1.15 1.876 2.36 0 5.508-15.915 5.508-15.915m-10.471.723-7.02-4.842s-.181-2.3 2.36-1.634 10.349 4.178 10.349 4.178m14.751 16.834v-5.954a2.977 2.977 0 0 1 2.977-2.977h5.954m-8.932-4.465a2.787 2.787 0 0 0 2.551-2.977 2.787 2.787 0 0 1 2.551-2.977h3.827M25.54 21.999a2.977 2.977 0 0 1 2.977 2.977v5.954"/><path stroke-width="1.492" d="M17.28 7.914s6.565-10.036 18.103-5.816 11.538 19.322 4.596 24.95-14.069 4.033-17.165 1.97"/></symbol><symbol id="icon-calendar" viewBox="0 0 29 32"><path stroke-linejoin="round" stroke-linecap="round" stroke-width="2.909" d="M24.727 4.364H4.363a2.908 2.908 0 0 0-2.909 2.909v20.364a2.908 2.908 0 0 0 2.909 2.909h20.364a2.908 2.908 0 0 0 2.909-2.909V7.273a2.908 2.908 0 0 0-2.909-2.909zm-4.363-2.909v5.818M8.727 1.455v5.818"/><path stroke-linecap="round" stroke-width="2.909" d="M1.455 13.091h26.182"/></symbol><symbol id="icon-location" viewBox="0 0 26 32"><path stroke-linejoin="round" stroke-linecap="round" stroke-width="2.909" d="M24.727 13.091c0 8.727-11.636 17.455-11.636 17.455S1.455 21.819 1.455 13.091a11.637 11.637 0 0 1 23.272 0z"/><path stroke-linejoin="round" stroke-linecap="round" stroke-width="2.909" d="M13.091 17.455a4.364 4.364 0 1 0 0-8.728 4.364 4.364 0 0 0 0 8.728z"/></symbol><symbol id="icon-twitter" viewBox="0 0 37 32"><path d="M33.217 8.895v1.013c0 10.059-7.599 21.566-21.566 21.566-4.342 0-8.322-1.23-11.651-3.401.579.072 1.158.145 1.809.145 3.546 0 6.803-1.23 9.408-3.257-3.329-.072-6.151-2.243-7.092-5.283.507.072.941.145 1.447.145.651 0 1.375-.145 1.954-.289-3.474-.724-6.079-3.763-6.079-7.454v-.072c1.013.579 2.243.868 3.474.941A7.476 7.476 0 0 1 1.52 6.653c0-1.447.362-2.75 1.013-3.836a22.048 22.048 0 0 0 15.704 7.961 7.126 7.126 0 0 1-.217-1.737 7.598 7.598 0 0 1 7.599-7.599c2.171 0 4.125.868 5.572 2.388a16.027 16.027 0 0 0 4.776-1.882c-.579 1.809-1.737 3.257-3.329 4.197a14.249 14.249 0 0 0 4.342-1.158c-1.013 1.52-2.316 2.822-3.763 3.908z"/></symbol><symbol id="icon-facebook" viewBox="0 0 17 32"><path d="M15.462 18.261h-4.484v13.391H5V18.261H.098v-5.5H5V8.516c0-4.783 2.87-7.473 7.234-7.473 2.092 0 4.304.418 4.304.418v4.723h-2.451c-2.391 0-3.109 1.435-3.109 2.989v3.587h5.321l-.837 5.5z"/></symbol><symbol id="icon-instagram" viewBox="0 0 32 32"><path d="M16 7.694c4.331 0 7.906 3.575 7.906 7.906 0 4.4-3.575 7.906-7.906 7.906A7.863 7.863 0 0 1 8.094 15.6c0-4.331 3.506-7.906 7.906-7.906zm0 13.062c2.819 0 5.088-2.269 5.088-5.156A5.077 5.077 0 0 0 16 10.512c-2.888 0-5.156 2.269-5.156 5.088A5.149 5.149 0 0 0 16 20.756zM26.037 7.419c0 1.031-.825 1.856-1.856 1.856s-1.856-.825-1.856-1.856c0-1.031.825-1.856 1.856-1.856s1.856.825 1.856 1.856zm5.226 1.856c.137 2.544.137 10.175 0 12.719-.138 2.475-.688 4.606-2.475 6.463-1.788 1.787-3.988 2.337-6.463 2.475-2.544.138-10.175.138-12.719 0-2.475-.137-4.606-.688-6.463-2.475C1.355 26.601.806 24.469.668 21.994.531 19.45.531 11.819.668 9.275.805 6.8 1.356 4.6 3.143 2.812 4.999 1.024 7.13.475 9.606.337c2.544-.138 10.175-.138 12.719 0C24.8.475 27 1.025 28.788 2.812s2.337 3.987 2.475 6.463zm-3.3 15.4c.825-1.994.619-6.806.619-9.075 0-2.2.206-7.013-.619-9.075-.55-1.306-1.581-2.406-2.888-2.888-2.063-.825-6.875-.619-9.075-.619-2.269 0-7.081-.206-9.075.619a5.301 5.301 0 0 0-2.956 2.888C3.144 8.588 3.35 13.4 3.35 15.6c0 2.269-.206 7.081.619 9.075a5.212 5.212 0 0 0 2.956 2.956c1.994.825 6.806.619 9.075.619 2.2 0 7.012.206 9.075-.619 1.306-.55 2.406-1.581 2.888-2.956z"/></symbol><symbol id="icon-phone" viewBox="0 0 32 32"><path d="M11.857 15.822c-1.012-1.464-1.614-3.231-1.738-3.381 1.482-1.033 4.38-2.331 4.543-4.194.206-2.407-3.871-7.439-4.653-7.484C7.87.786 3.954 4.406 3.49 5.501c-.862 2.262-.435 4.367 1.048 7.415 1.888 4.533 8.901 13.133 12.912 15.832 2.654 2.037 4.594 2.837 6.909 2.354 1.077-.204 4.965-3.394 5.354-5.551.095-.8-4.424-6.104-6.762-6.314-1.815-.168-3.555 2.549-4.802 3.877-.124-.158-1.188-.988-2.329-2.302-1.486-1.561-2.866-3.395-3.962-4.99z"/></symbol><symbol id="icon-menu" viewBox="0 0 60 32"><path d="M2 14h56v4H2v-4zM2 0h56v4H2V0zm0 28h37.32v4H2v-4z"/></symbol></defs></svg>